<svg width="140" height="24" viewBox="0 0 140 24" fill="none" xmlns="http://www.w3.org/2000/svg">
<path d="M21 2.71435L18.425 8.07765C16.0176 6.70337 12.6065 5.4634 10.6337 5.4634C9.46293 5.4634 8.69409 5.86582 8.69409 6.73757C8.69409 10.1899 20.9332 8.14505 20.9332 16.6256C20.9332 21.6197 16.5195 24 11.2691 24C7.2894 24 2.94236 22.592 0 20.2791L2.60813 14.9832C5.01552 17.027 8.92796 18.5693 11.3358 18.5693C12.8078 18.5693 13.7432 18.0673 13.7432 16.9943C13.7432 13.4409 1.50455 15.687 1.50455 7.4081C1.50455 2.88236 5.35025 3.38545e-07 11.2023 3.38545e-07C14.7801 3.38545e-07 18.4586 1.07246 21 2.71435" fill="#03045E"/>
<path d="M42.1186 24V15.0645H33.8814V24H27V7.21532e-07H33.8814V9.55201H42.1186V7.21532e-07H49V24H42.1186Z" fill="#03045E"/>
<path d="M56 24V-4.587e-07H63V24H56Z" fill="#03045E"/>
<path d="M76.1355 5.47811V9.24424H87.49V14.7218H76.1355V18.5224H89V24H69V-4.587e-07H88.6576V5.47811H76.1355" fill="#03045E"/>
<path d="M112 18.043V24H95V-4.587e-07H102.044V18.043H112" fill="#03045E"/>
<path d="M123.994 18.4196H127.525C130.72 18.4196 132.872 15.8861 132.872 12.0516C132.872 8.18274 130.551 5.61478 127.189 5.61478H123.994V18.4196ZM127.323 -4.587e-07C134.957 -4.587e-07 140 4.7593 140 11.9828C140 19.2068 134.855 24 127.087 24H117V-4.587e-07H127.323" fill="#03045E"/>
</svg>
